<svg xmlns="http://www.w3.org/2000/svg" xmlns:xlink="http://www.w3.org/1999/xlink" width="1080" zoomAndPan="magnify" viewBox="0 0 810 809.999993" height="1080" preserveAspectRatio="xMidYMid meet" version="1.0"><defs><clipPath id="adb6827320"><path d="M 0 1.472656 L 810 1.472656 L 810 808.472656 L 0 808.472656 Z M 0 1.472656 " clip-rule="nonzero"/></clipPath></defs><g clip-path="url(#adb6827320)"><path fill="#000000" d="M 810.085938 406.523438 C 810.085938 182.804688 628.753906 1.472656 405.074219 1.472656 C 181.390625 1.472656 0.0234375 182.804688 0.0234375 406.523438 C 0.0234375 596.46875 130.785156 755.878906 307.210938 799.648438 L 307.210938 530.304688 L 223.667969 530.304688 L 223.667969 406.523438 L 307.210938 406.523438 L 307.210938 353.191406 C 307.210938 215.339844 369.589844 151.429688 504.9375 151.429688 C 530.601562 151.429688 574.878906 156.449219 592.984375 161.5 L 592.984375 273.6875 C 583.421875 272.667969 566.808594 272.160156 546.195312 272.160156 C 479.777344 272.160156 454.113281 297.316406 454.113281 362.71875 L 454.113281 406.488281 L 586.402344 406.488281 L 563.683594 530.269531 L 454.113281 530.269531 L 454.113281 808.554688 C 654.675781 784.34375 810.085938 613.554688 810.085938 406.488281 Z M 810.085938 406.523438 " fill-opacity="1" fill-rule="nonzero"/></g></svg>