<svg xmlns="http://www.w3.org/2000/svg" viewBox="0 0 212.61 36.5"><title>GrabFood logo</title><path d="M409.92,513.11a12.75,12.75,0,0,0,12.82,13.09c7,0,10.46-4.5,10.46-9.46V515H423.06v2.73h7.36c0,2.68-2.41,5.82-7.68,5.82-5.82,0-9.86-4.32-9.86-10.41a10,10,0,0,1,10.36-10.27,16.35,16.35,0,0,1,9.86,3l.18-.14v-2.55a18.14,18.14,0,0,0-10.14-3A13,13,0,0,0,409.92,513.11Zm-4.23,0a16.66,16.66,0,0,0,17,17.14c8.91,0,14.37-5.59,14.37-14.64V511h-14v2.64h11.5v2.45c0,7.09-4.41,11.5-11.82,11.5-8.14,0-14.18-6.23-14.18-14.46a14.29,14.29,0,0,1,14.59-14.32,17.73,17.73,0,0,1,10.14,2.82v-2.68a17,17,0,0,0-10.14-2.82C413.29,496.11,405.69,503.61,405.69,513.11Zm37.19,2.32v14h2.68v-14c0-3.14,2-5.36,5.09-5.36a6.51,6.51,0,0,1,2.59.59,13.33,13.33,0,0,1,1.18-2.27,7,7,0,0,0-3.73-1C446.11,507.39,442.88,510.7,442.88,515.43Zm-4,14h2.68v-14c0-5.55,3.73-9.32,9.14-9.32a9.87,9.87,0,0,1,4.5,1.09,13.17,13.17,0,0,1,1.77-1.82,11.23,11.23,0,0,0-6.41-1.86c-7.14,0-11.68,4.82-11.68,12v14Zm42-15.73v4c1.59-2.14,3-4,4.23-5.55,3.23-4,6-6.14,10.41-6.14,5.91,0,10.23,4.45,10.23,10.73s-4.23,10.82-10,10.82a9.93,9.93,0,0,1-9.77-7.64l-1.91,2.59a12,12,0,0,0,11.64,7.73c7.36,0,12.77-5.91,12.77-13.5s-5.46-13.46-12.91-13.46C487.88,503.29,484.34,509.07,481,513.75Zm8.32,2h-.09l-2.09,2.86a9.06,9.06,0,0,0,8.68,7.64c5.09,0,8.77-4.14,8.77-9.55s-3.77-9.41-9-9.41-8,3.68-10,6.41c-1,1.32-2.73,3.45-4.64,6.14v4.36c1.77-2.64,4.18-5.73,6-7.86,3-3.59,4.82-6.32,8.64-6.32s6.27,2.86,6.27,6.68-2.41,6.86-6,6.86c-3.82,0-6.5-3.5-6.5-7.41v-.41Zm-2.68-22v11.32a11.42,11.42,0,0,1,2.68-1.77v-9.55Zm-4,15.46a35,35,0,0,1,2.68-3.14V493.75h-2.68Zm-10.91,13,0,0a8,8,0,0,1-4.77,1.45c-3.64,0-6.36-2.73-6.36-6.77,0-3.86,2.68-6.82,6.27-6.82,3.86,0,6.23,2.82,6.23,6.59v12.91h2.68v-13c0-5.27-3.68-9.14-8.86-9.14s-9.09,3.86-9.09,9.5,3.91,9.59,9.09,9.46a10,10,0,0,0,4.86-1.41Zm-18-5.41c0,7.91,5.59,13.5,13.14,13.5a8.42,8.42,0,0,0,4.86-1.45v-2.68a8.56,8.56,0,0,1-4.86,1.45c-6.18,0-10.36-4.36-10.36-10.82,0-6.14,4.45-10.73,10.36-10.73S477,510.34,477,516.39v13.09h2.73V516.34c0-7.55-5.32-13.09-12.86-13.09A13.11,13.11,0,0,0,453.7,516.75Z" transform="translate(-405.69 -493.75)" style="fill:#00b14f"/><path d="M518.34,501.62v10.06h13.33v4.91H518.34v12.88H513V496.71h20.2v4.91H518.34Zm43,15.24c0,8-5.19,13.29-12.79,13.29s-12.83-5.32-12.83-13.29,5.23-13.33,12.83-13.33S561.29,508.9,561.29,516.86Zm-12.79-8.37c-4.37,0-7.6,3.46-7.6,8.37s3.23,8.33,7.6,8.33,7.55-3.41,7.55-8.33S552.87,508.49,548.5,508.49Zm41.32,8.37c0,8-5.19,13.29-12.79,13.29s-12.83-5.32-12.83-13.29,5.23-13.33,12.83-13.33S589.82,508.9,589.82,516.86ZM577,508.49c-4.37,0-7.6,3.46-7.6,8.37s3.23,8.33,7.6,8.33,7.55-3.41,7.55-8.33S581.4,508.49,577,508.49Zm28.17-5c3.64,0,6.73,2.09,7.64,4.37h.23V494h5.23v22.66c0,8.23-5.28,13.51-12.74,13.51s-12.83-5.14-12.83-13.33S598.1,503.53,605.2,503.53Zm.36,21.66c4.32,0,7.51-3.46,7.51-8.74,0-4.82-3.32-8-7.6-8s-7.51,3.09-7.51,8.14C598,521.87,601.24,525.19,605.57,525.19Z" transform="translate(-405.69 -493.75)" style="fill:#00b14f"/></svg>