<svg xmlns="http://www.w3.org/2000/svg" xmlns:xlink="http://www.w3.org/1999/xlink" width="1080" zoomAndPan="magnify" viewBox="0 0 810 809.999993" height="1080" preserveAspectRatio="xMidYMid meet" version="1.0"><defs><clipPath id="4b4eb30557"><path d="M 2.210938 0 L 807.710938 0 L 807.710938 810 L 2.210938 810 Z M 2.210938 0 " clip-rule="nonzero"/></clipPath></defs><g clip-path="url(#4b4eb30557)"><path fill="#000000" d="M 690.324219 118.027344 C 614.609375 42.234375 513.925781 0.414062 406.636719 0.414062 C 185.574219 0.414062 5.652344 180.296875 5.570312 401.4375 C 5.570312 472.109375 24.019531 541.140625 59.117188 601.929688 L 2.210938 809.746094 L 214.828125 753.960938 C 273.414062 785.933594 339.363281 802.742188 406.476562 802.78125 L 406.636719 802.78125 C 627.65625 802.78125 807.621094 622.859375 807.660156 401.757812 C 807.660156 294.589844 766.039062 193.863281 690.285156 118.027344 Z M 406.636719 735.070312 L 406.515625 735.070312 C 346.726562 735.070312 288.019531 718.984375 236.835938 688.609375 L 224.671875 681.367188 L 98.492188 714.460938 L 132.148438 591.445312 L 124.226562 578.839844 C 90.851562 525.777344 73.242188 464.425781 73.28125 401.4375 C 73.363281 217.675781 222.910156 68.125 406.753906 68.125 C 495.796875 68.125 579.472656 102.859375 642.421875 165.890625 C 705.371094 228.878906 739.988281 312.636719 739.949219 401.71875 C 739.867188 585.523438 590.320312 735.070312 406.59375 735.070312 Z M 589.480469 485.4375 C 579.472656 480.433594 530.210938 456.183594 521.007812 452.863281 C 511.804688 449.5 505.160156 447.859375 498.476562 457.863281 C 491.792969 467.910156 472.585938 490.480469 466.742188 497.164062 C 460.898438 503.84375 455.058594 504.6875 445.011719 499.644531 C 435.007812 494.640625 402.714844 484.035156 364.414062 449.902344 C 334.640625 423.328125 314.511719 390.511719 308.671875 380.46875 C 302.828125 370.425781 308.070312 365.023438 313.070312 360.019531 C 317.554688 355.539062 323.078125 348.292969 328.117188 342.453125 C 333.121094 336.609375 334.800781 332.40625 338.125 325.722656 C 341.484375 319.039062 339.804688 313.199219 337.28125 308.15625 C 334.761719 303.152344 314.753906 253.808594 306.390625 233.761719 C 298.265625 214.230469 289.980469 216.875 283.859375 216.554688 C 278.015625 216.273438 271.332031 216.191406 264.648438 216.191406 C 257.964844 216.191406 247.121094 218.675781 237.917969 228.71875 C 228.714844 238.761719 202.859375 263.015625 202.859375 312.316406 C 202.859375 361.621094 238.757812 409.28125 243.800781 416.003906 C 248.800781 422.6875 314.472656 523.894531 415 567.316406 C 438.890625 577.640625 457.578125 583.800781 472.144531 588.445312 C 496.15625 596.085938 518.007812 595.007812 535.253906 592.40625 C 554.503906 589.523438 594.519531 568.15625 602.886719 544.746094 C 611.25 521.332031 611.25 501.285156 608.726562 497.082031 C 606.207031 492.878906 599.523438 490.398438 589.519531 485.355469 Z M 589.480469 485.4375 " fill-opacity="1" fill-rule="evenodd"/></g></svg>